<svg width="25" height="24" viewBox="0 0 25 24" fill="none" xmlns="http://www.w3.org/2000/svg">
<path d="M8.10004 13C9.1544 13 10.0182 13.8159 10.0946 14.8507L10.1 15V18C10.1 19.0544 9.28416 19.9182 8.2493 19.9945L8.10004 20H5.10004C4.04567 20 3.18187 19.1841 3.10552 18.1493L3.10004 18V15C3.10004 13.9456 3.91591 13.0818 4.95077 13.0055L5.10004 13H8.10004ZM8.10004 3C9.20461 3 10.1 3.89543 10.1 5V8C10.1 9.10457 9.20461 10 8.10004 10H5.10004C3.99547 10 3.10004 9.10457 3.10004 8V5C3.10004 3.89543 3.99547 3 5.10004 3H8.10004Z" fill="#334155"/>
<path d="M18.1 18C18.1 17.4477 17.6523 17 17.1 17H13.1L12.9834 17.0067C12.4861 17.0645 12.1 17.4872 12.1 18C12.1 18.5523 12.5477 19 13.1 19H17.1L17.2167 18.9933C17.714 18.9355 18.1 18.5128 18.1 18Z" fill="#DA7D4A"/>
<path d="M22.1 14C22.1 13.4477 21.6523 13 21.1 13H13.1C12.5477 13 12.1 13.4477 12.1 14C12.1 14.5523 12.5477 15 13.1 15H21.1C21.6523 15 22.1 14.5523 22.1 14Z" fill="#DA7D4A"/>
<path d="M18.1 8C18.1 7.44772 17.6523 7 17.1 7H13.1L12.9834 7.00673C12.4861 7.06449 12.1 7.48717 12.1 8C12.1 8.55228 12.5477 9 13.1 9H17.1L17.2167 8.99327C17.714 8.93551 18.1 8.51283 18.1 8Z" fill="#DA7D4A"/>
<path d="M22.1 4C22.1 3.44772 21.6523 3 21.1 3H13.1L12.9834 3.00673C12.4861 3.06449 12.1 3.48717 12.1 4C12.1 4.55228 12.5477 5 13.1 5H21.1L21.2167 4.99327C21.714 4.93551 22.1 4.51283 22.1 4Z" fill="#DA7D4A"/>
</svg>
