<svg width="25" height="24" viewBox="0 0 25 24" fill="none" xmlns="http://www.w3.org/2000/svg">
<path d="M11.5 2C15.6825 2 19.1986 4.85296 20.2084 8.71896C19.2357 8.25792 18.148 8 17 8C12.8579 8 9.5 11.3579 9.5 15.5C9.5 17.182 10.0537 18.7347 10.9887 19.9857C9.49774 19.9021 8.10187 19.455 6.89052 18.7314L4.24127 19.5106C3.47559 19.7358 2.76419 19.0244 2.98939 18.2587L3.76858 15.6095C2.96288 14.2606 2.5 12.683 2.5 11C2.5 6.02944 6.52944 2 11.5 2Z" fill="#334155"/>
<path d="M22.5 15.5C22.5 12.4624 20.0376 10 17 10C13.9624 10 11.5 12.4624 11.5 15.5C11.5 18.5376 13.9624 21 17 21C17.9586 21 18.8622 20.754 19.6484 20.3213L20.959 20.7068C21.7222 20.9312 22.4312 20.2222 22.2068 19.459L21.8213 18.1484C22.254 17.3622 22.5 16.4586 22.5 15.5Z" fill="#DA7D4A"/>
</svg>
