<svg width="25" height="24" viewBox="0 0 25 24" fill="none" xmlns="http://www.w3.org/2000/svg">
<path d="M21.3 4C22.4046 4 23.3 4.89543 23.3 6V18C23.3 19.1046 22.4046 20 21.3 20H5.30005C4.19548 20 3.30005 19.1046 3.30005 18V17H5.30005V18H21.3V7.4226L14.3648 14.3578C13.779 14.9436 12.8293 14.9436 12.2435 14.3578L5.30005 7.41431V8H3.30005V6C3.30005 4.89543 4.19548 4 5.30005 4H21.3Z" fill="#334155"/>
<path d="M7.30005 11C7.30005 10.4477 6.85233 10 6.30005 10H3.30005C2.74777 10 2.30005 10.4477 2.30005 11C2.30005 11.5523 2.74777 12 3.30005 12H6.30005C6.85233 12 7.30005 11.5523 7.30005 11Z" fill="#DA7D4A"/>
<path d="M7.30005 14C7.30005 13.4477 6.85233 13 6.30005 13H3.30005C2.74777 13 2.30005 13.4477 2.30005 14C2.30005 14.5523 2.74777 15 3.30005 15H6.30005C6.85233 15 7.30005 14.5523 7.30005 14Z" fill="#DA7D4A"/>
</svg>
